<svg width="36" height="37" viewBox="0 0 36 37" fill="none" xmlns="http://www.w3.org/2000/svg">
<g clip-path="url(#clip0_85_350)">
<path d="M29.8587 35.375H6.14149C5.65796 35.375 5.18007 35.2711 4.74018 35.0704C4.30029 34.8697 3.90867 34.5767 3.59184 34.2115C3.27501 33.8462 3.04036 33.4171 2.90379 32.9533C2.76721 32.4894 2.7319 32.0017 2.80024 31.523L5.62511 11.75H30.3751L33.2 31.523C33.2683 32.0017 33.233 32.4894 33.0964 32.9533C32.9599 33.4171 32.7252 33.8462 32.4084 34.2115C32.0915 34.5767 31.6999 34.8697 31.26 35.0704C30.8202 35.2711 30.3423 35.375 29.8587 35.375V35.375Z" stroke="#0F1419" stroke-width="2" stroke-miterlimit="10" stroke-linecap="square"/>
<path d="M12.375 17.375V7.25C12.375 5.75816 12.9676 4.32742 14.0225 3.27252C15.0774 2.21763 16.5082 1.625 18 1.625V1.625C18.7387 1.625 19.4701 1.77049 20.1526 2.05318C20.8351 2.33586 21.4551 2.75019 21.9775 3.27252C22.4998 3.79485 22.9141 4.41495 23.1968 5.09741C23.4795 5.77986 23.625 6.51131 23.625 7.25V17.375" stroke="#0F1419" stroke-width="2" stroke-miterlimit="10" stroke-linecap="square"/>
</g>
<defs>
<clipPath id="clip0_85_350">
<rect width="36" height="36" fill="white" transform="translate(0 0.5)"/>
</clipPath>
</defs>
</svg>
