<svg width="96" height="96" viewBox="0 0 96 96" fill="none" xmlns="http://www.w3.org/2000/svg">
<path fill-rule="evenodd" clip-rule="evenodd" d="M4.23535 18.6521H13.5183L18.662 54.0283L23.6798 18.6521H87.2824L85.1502 28.8136H31.4582L23.3038 75.3548H14.0203L4.23535 18.6521Z" fill="#667085"/>
<path fill-rule="evenodd" clip-rule="evenodd" d="M88.9134 62.1827C89.1645 67.702 86.0283 76.1074 79.128 76.1074C71.1001 76.1074 69.3435 66.1974 69.3435 62.0572H75.8668C75.8668 64.4403 77.8744 66.8245 79.3795 66.8245C80.8851 66.8245 82.3911 64.9424 82.3911 63.6883C82.3911 62.4332 81.8891 60.5522 79.506 58.9211C71.7271 54.2794 69.971 48.8846 69.971 44.2434C69.72 38.7236 72.3542 30.5692 79.254 30.5692C86.1543 30.5692 88.0359 40.2292 88.0359 44.2434H81.8891C81.8891 41.9853 80.3835 40.3547 78.8785 40.3547C77.3729 40.3547 76.3688 41.8598 76.3688 43.1148C76.3688 44.3694 76.6199 45.4984 79.004 47.129C82.2651 48.6346 88.9134 53.5268 88.9134 62.1827ZM89.286 72.8463C89.5501 72.8459 89.8118 72.8976 90.0559 72.9985C90.3 73.0994 90.5218 73.2475 90.7086 73.4343C90.8953 73.621 91.0434 73.8428 91.1443 74.0869C91.2452 74.3311 91.297 74.5927 91.2966 74.8568C91.2983 75.1219 91.2475 75.3847 91.1472 75.6302C91.047 75.8756 90.8991 76.0987 90.7122 76.2867C90.5254 76.4748 90.3031 76.624 90.0584 76.7258C89.8136 76.8276 89.5511 76.8799 89.286 76.8799C89.0201 76.8807 88.7567 76.8289 88.5109 76.7275C88.2651 76.6261 88.0417 76.4771 87.8537 76.2891C87.6657 76.1011 87.5167 75.8777 87.4153 75.6319C87.314 75.3861 87.2622 75.1227 87.2629 74.8568C87.2629 73.7437 88.1674 72.8463 89.286 72.8463V72.3786C87.9074 72.3786 86.7948 73.4912 86.7948 74.8573C86.7943 75.1846 86.8585 75.5088 86.9835 75.8112C87.1085 76.1137 87.292 76.3885 87.5234 76.6199C87.7548 76.8513 88.0296 77.0348 88.3321 77.1598C88.6346 77.2849 88.9587 77.349 89.286 77.3485C90.6516 77.3485 91.7647 76.2359 91.7647 74.8573C91.7637 74.2003 91.5022 73.5704 91.0376 73.1058C90.5729 72.6411 89.9431 72.3796 89.286 72.3786V72.8463Z" fill="#667085"/>
<path fill-rule="evenodd" clip-rule="evenodd" d="M88.787 73.9279H89.4379C89.6974 73.9279 90.0769 73.9279 90.0769 74.275C90.0769 74.6167 89.8677 74.6864 89.5709 74.6795H88.787V75.0784H89.3114L89.9056 76.2164H90.5192L89.8672 75.0784C90.3419 75.0465 90.6009 74.8438 90.6009 74.3577C90.6009 74.0793 90.5252 73.8198 90.2846 73.6625C90.0824 73.536 89.7856 73.529 89.558 73.529H88.2611V76.2164H88.7865V73.9279H88.787ZM34.7194 60.3016L37.2285 43.9928L39.7376 60.3016H34.7194ZM33.2143 69.459H40.9922L41.9957 75.3548H54.4148V52.0217L62.0672 75.3548H68.465V31.9497H61.9417V54.0288L54.6659 31.9497H47.892V72.7207L40.8667 31.9497H33.5903L26.0635 75.3548H32.4613L33.2143 69.459Z" fill="#667085"/>
</svg>
