<svg width="96" height="66" viewBox="0 0 96 66" fill="none" xmlns="http://www.w3.org/2000/svg">
<path d="M10.5895 65.761C7.72911 65.5432 5.38887 64.043 3.559 61.2567C3.20978 60.7244 2.37761 59.1285 2.09843 58.4554C1.35639 56.6671 0.851901 54.9266 0.515411 52.9955C-0.520016 47.0512 0.0128815 39.2509 2.03965 30.6902C3.775 23.3612 6.45271 16.0923 11.1244 6.02489C11.8125 4.54349 13.8618 0.21106 13.8751 0.21106C13.88 0.21106 13.7683 0.581873 13.6277 1.03343C12.413 4.93309 11.3737 9.5265 10.8075 13.5032C9.89793 19.884 10.0076 25.3599 11.1288 29.6059C11.9022 32.5312 13.228 35.0649 14.719 36.4656C17.3291 38.9167 21.1505 39.1195 25.8173 37.0589C26.1386 36.9162 42.0598 28.8155 61.1981 19.0569C80.3364 9.29744 95.9976 1.31881 96 1.32538C96.0054 1.33384 51.5364 37.8052 28.4519 56.7262C24.796 59.7218 23.8184 60.4785 22.0997 61.635C17.7062 64.5922 13.7707 66.0032 10.5895 65.761Z" fill="#667085"/>
</svg>
